<svg width="162" height="99" viewBox="0 0 162 99" fill="none" xmlns="http://www.w3.org/2000/svg">
<g filter="url(#filter0_d)">
<path d="M9.28002 29C9.34325 29.0011 9.40604 28.9893 9.46451 28.9652C9.52299 28.9411 9.57591 28.9053 9.62002 28.86C9.66534 28.8159 9.70114 28.763 9.72522 28.7045C9.74929 28.646 9.76114 28.5832 9.76002 28.52V17.6C9.76002 17.467 9.82702 17.4 9.96002 17.4H12.48C12.56 17.4 12.627 17.453 12.68 17.56L16.72 28.6C16.8 28.867 16.987 29 17.28 29H22.16C22.453 29 22.6 28.88 22.6 28.64C22.6023 28.5711 22.5887 28.5027 22.56 28.44L18 16.96C17.947 16.827 17.987 16.733 18.12 16.68C19.48 16.067 20.533 15.133 21.28 13.88C22.027 12.627 22.4 11.147 22.4 9.44C22.4 7.787 22.067 6.32 21.4 5.04C20.7634 3.79155 19.7764 2.75591 18.56 2.06C17.333 1.353 15.933 1 14.36 1H4.60002C4.53679 0.998879 4.474 1.01072 4.41553 1.0348C4.35705 1.05888 4.30412 1.09468 4.26002 1.14C4.2147 1.18411 4.1789 1.23703 4.15482 1.29551C4.13074 1.35398 4.1189 1.41677 4.12002 1.48V28.52C4.12002 28.653 4.16702 28.767 4.26002 28.86C4.35302 28.953 4.46702 29 4.60002 29H9.28002V29ZM13.44 13.08H9.96002C9.82702 13.08 9.76002 13.013 9.76002 12.88V6.04C9.76002 5.907 9.82702 5.84 9.96002 5.84H13.44C14.427 5.84 15.227 6.167 15.84 6.82C16.453 7.473 16.76 8.36 16.76 9.48C16.76 10.573 16.453 11.447 15.84 12.1C15.227 12.753 14.427 13.08 13.44 13.08V13.08ZM34.64 29.36C36.48 29.36 38.107 28.987 39.52 28.24C40.933 27.493 42.027 26.44 42.8 25.08C43.573 23.72 43.96 22.133 43.96 20.32V9.68C43.96 7.893 43.573 6.32 42.8 4.96C42.027 3.6 40.933 2.547 39.52 1.8C38.107 1.053 36.48 0.68 34.64 0.68C32.8 0.68 31.18 1.053 29.78 1.8C28.4111 2.51655 27.2789 3.61405 26.52 4.96C25.747 6.32 25.36 7.893 25.36 9.68V20.32C25.36 22.133 25.747 23.72 26.52 25.08C27.2789 26.426 28.4111 27.5235 29.78 28.24C31.18 28.987 32.8 29.36 34.64 29.36V29.36ZM34.64 24.52C33.547 24.52 32.667 24.153 32 23.42C31.333 22.687 31 21.733 31 20.56V9.52C31 8.32 31.333 7.353 32 6.62C32.667 5.887 33.547 5.52 34.64 5.52C35.76 5.52 36.653 5.887 37.32 6.62C37.987 7.353 38.32 8.32 38.32 9.52V20.56C38.32 21.733 37.987 22.687 37.32 23.42C36.653 24.153 35.76 24.52 34.64 24.52V24.52ZM56.4 29.32C58.213 29.32 59.813 28.967 61.2 28.26C62.587 27.553 63.66 26.547 64.42 25.24C65.18 23.933 65.56 22.427 65.56 20.72V20.6C65.5611 20.5368 65.5493 20.474 65.5252 20.4155C65.5011 20.357 65.4653 20.3041 65.42 20.26C65.3759 20.2147 65.323 20.1789 65.2645 20.1548C65.206 20.1307 65.1433 20.1189 65.08 20.12L60.4 19.92C60.08 19.92 59.92 20.067 59.92 20.36V20.88C59.92 21.973 59.6 22.847 58.96 23.5C58.32 24.153 57.467 24.48 56.4 24.48C55.333 24.48 54.48 24.153 53.84 23.5C53.2 22.847 52.88 21.973 52.88 20.88V9.16C52.88 8.067 53.2 7.187 53.84 6.52C54.48 5.853 55.333 5.52 56.4 5.52C57.467 5.52 58.32 5.853 58.96 6.52C59.6 7.187 59.92 8.067 59.92 9.16V9.68C59.92 9.973 60.08 10.12 60.4 10.12L65.08 9.92C65.145 9.92037 65.2093 9.90619 65.2681 9.87851C65.327 9.85083 65.3789 9.81033 65.42 9.76C65.5101 9.66172 65.56 9.53329 65.56 9.4V9.2C65.56 7.493 65.18 6 64.42 4.72C63.66 3.44 62.587 2.447 61.2 1.74C59.813 1.033 58.213 0.68 56.4 0.68C54.587 0.68 52.987 1.04 51.6 1.76C50.213 2.48 49.14 3.5 48.38 4.82C47.62 6.14 47.24 7.667 47.24 9.4V20.52C47.24 22.28 47.62 23.827 48.38 25.16C49.1271 26.481 50.2471 27.5523 51.6 28.24C52.987 28.96 54.587 29.32 56.4 29.32V29.32ZM74.32 29C74.3833 29.0011 74.446 28.9893 74.5045 28.9652C74.563 28.9411 74.6159 28.9053 74.66 28.86C74.7053 28.8159 74.7411 28.763 74.7652 28.7045C74.7893 28.646 74.8011 28.5832 74.8 28.52V20.52C74.8 20.467 74.827 20.387 74.88 20.28L76.68 17.68C76.733 17.6 76.787 17.56 76.84 17.56C76.893 17.56 76.933 17.6 76.96 17.68L82.64 28.64C82.773 28.88 82.96 29 83.2 29H88.32C88.613 29 88.76 28.893 88.76 28.68C88.7503 28.5953 88.7231 28.5136 88.68 28.44L80.84 13.32C80.8132 13.2286 80.8132 13.1314 80.84 13.04L88.24 1.56C88.347 1.4 88.367 1.267 88.3 1.16C88.233 1.053 88.107 1 87.92 1H82.76C82.6464 0.997604 82.5344 1.02611 82.4357 1.08247C82.3371 1.13883 82.2556 1.22093 82.2 1.32L75.04 12.2C75.013 12.28 74.967 12.307 74.9 12.28C74.833 12.253 74.8 12.2 74.8 12.12V1.48C74.8011 1.41677 74.7893 1.35398 74.7652 1.29551C74.7411 1.23703 74.7053 1.18411 74.66 1.14C74.6159 1.09468 74.563 1.05888 74.5045 1.0348C74.446 1.01072 74.3833 0.998879 74.32 1H69.64C69.5768 0.998879 69.514 1.01072 69.4555 1.0348C69.3971 1.05888 69.3441 1.09468 69.3 1.14C69.2547 1.18411 69.2189 1.23703 69.1948 1.29551C69.1707 1.35398 69.1589 1.41677 69.16 1.48V28.52C69.16 28.653 69.207 28.767 69.3 28.86C69.393 28.953 69.507 29 69.64 29H74.32V29ZM9.16002 61C9.22325 61.0011 9.28604 60.9893 9.34451 60.9652C9.40299 60.9411 9.45591 60.9053 9.50002 60.86C9.54534 60.8159 9.58114 60.763 9.60522 60.7045C9.6293 60.646 9.64114 60.5832 9.64002 60.52V50.12C9.64002 49.987 9.70702 49.92 9.84002 49.92H14.16C15.76 49.92 17.18 49.573 18.42 48.88C19.6457 48.2012 20.6467 47.1794 21.3 45.94C21.98 44.673 22.32 43.213 22.32 41.56C22.32 39.88 21.98 38.387 21.3 37.08C20.62 35.773 19.66 34.76 18.42 34.04C17.18 33.32 15.76 32.96 14.16 32.96H4.48002C4.41679 32.9589 4.354 32.9707 4.29552 32.9948C4.23705 33.0189 4.18413 33.0547 4.14002 33.1C4.0947 33.1441 4.0589 33.197 4.03482 33.2555C4.01074 33.314 3.9989 33.3768 4.00002 33.44V60.52C4.00002 60.653 4.04702 60.767 4.14002 60.86C4.23302 60.953 4.34702 61 4.48002 61H9.16002V61ZM13.24 45.44H9.84002C9.70702 45.44 9.64002 45.373 9.64002 45.24V38.04C9.64002 37.907 9.70702 37.84 9.84002 37.84H13.24C14.28 37.84 15.113 38.187 15.74 38.88C16.367 39.573 16.68 40.507 16.68 41.68C16.68 42.827 16.367 43.74 15.74 44.42C15.113 45.1 14.28 45.44 13.24 45.44V45.44ZM29.36 61C29.627 61 29.8 60.867 29.88 60.6L30.8 56.68C30.827 56.573 30.893 56.52 31 56.52H38.48C38.587 56.52 38.653 56.573 38.68 56.68L39.6 60.6C39.68 60.867 39.867 61 40.16 61H45.04C45.333 61 45.48 60.88 45.48 60.64L45.44 60.48L38.24 33.4C38.16 33.133 37.973 33 37.68 33H31.88C31.587 33 31.4 33.133 31.32 33.4L24.12 60.48C24.04 60.827 24.173 61 24.52 61H29.36V61ZM37.36 52.16H32.08C32.0215 52.1581 31.9653 52.1371 31.92 52.1C31.867 52.06 31.853 52 31.88 51.92L34.56 40.32C34.587 40.213 34.627 40.16 34.68 40.16C34.733 40.16 34.773 40.213 34.8 40.32L37.56 51.92C37.587 52 37.573 52.06 37.52 52.1C37.4747 52.1371 37.4185 52.1581 37.36 52.16V52.16ZM53.48 61C53.5433 61.0011 53.606 60.9893 53.6645 60.9652C53.723 60.9411 53.7759 60.9053 53.82 60.86C53.8653 60.8159 53.9011 60.763 53.9252 60.7045C53.9493 60.646 53.9611 60.5832 53.96 60.52V50.12C53.96 49.987 54.027 49.92 54.16 49.92H58.48C60.08 49.92 61.5 49.573 62.74 48.88C63.9657 48.2012 64.9667 47.1794 65.62 45.94C66.3 44.673 66.64 43.213 66.64 41.56C66.64 39.88 66.3 38.387 65.62 37.08C64.94 35.773 63.98 34.76 62.74 34.04C61.5 33.32 60.08 32.96 58.48 32.96H48.8C48.7368 32.9589 48.674 32.9707 48.6155 32.9948C48.5571 33.0189 48.5041 33.0547 48.46 33.1C48.4147 33.1441 48.3789 33.197 48.3548 33.2555C48.3307 33.314 48.3189 33.3768 48.32 33.44V60.52C48.32 60.653 48.367 60.767 48.46 60.86C48.553 60.953 48.667 61 48.8 61H53.48V61ZM57.56 45.44H54.16C54.027 45.44 53.96 45.373 53.96 45.24V38.04C53.96 37.907 54.027 37.84 54.16 37.84H57.56C58.6 37.84 59.433 38.187 60.06 38.88C60.687 39.573 61 40.507 61 41.68C61 42.827 60.687 43.74 60.06 44.42C59.433 45.1 58.6 45.44 57.56 45.44V45.44ZM86.24 61C86.3032 61.0011 86.366 60.9893 86.4245 60.9652C86.483 60.9411 86.5359 60.9053 86.58 60.86C86.6253 60.8159 86.6611 60.763 86.6852 60.7045C86.7093 60.646 86.7211 60.5832 86.72 60.52V56.64C86.7211 56.5768 86.7093 56.514 86.6852 56.4555C86.6611 56.397 86.6253 56.3441 86.58 56.3C86.5359 56.2547 86.483 56.2189 86.4245 56.1948C86.366 56.1707 86.3032 56.1589 86.24 56.16H75.52C75.387 56.16 75.32 56.093 75.32 55.96V49.52C75.32 49.387 75.387 49.32 75.52 49.32H82.2C82.2632 49.3211 82.326 49.3093 82.3845 49.2852C82.443 49.2611 82.4959 49.2253 82.54 49.18C82.5853 49.1359 82.6211 49.083 82.6452 49.0245C82.6693 48.966 82.6811 48.9032 82.68 48.84V44.96C82.6811 44.8968 82.6693 44.834 82.6452 44.7755C82.6211 44.717 82.5853 44.6641 82.54 44.62C82.4959 44.5747 82.443 44.5389 82.3845 44.5148C82.326 44.4907 82.2632 44.4789 82.2 44.48H75.52C75.387 44.48 75.32 44.413 75.32 44.28V38.04C75.32 37.907 75.387 37.84 75.52 37.84H86.24C86.3032 37.8411 86.366 37.8293 86.4245 37.8052C86.483 37.7811 86.5359 37.7453 86.58 37.7C86.6253 37.6559 86.6611 37.603 86.6852 37.5445C86.7093 37.486 86.7211 37.4232 86.72 37.36V33.48C86.7211 33.4168 86.7093 33.354 86.6852 33.2955C86.6611 33.237 86.6253 33.1841 86.58 33.14C86.5359 33.0947 86.483 33.0589 86.4245 33.0348C86.366 33.0107 86.3032 32.9989 86.24 33H70.16C70.0968 32.9989 70.034 33.0107 69.9755 33.0348C69.9171 33.0589 69.8641 33.0947 69.82 33.14C69.7747 33.1841 69.7389 33.237 69.7148 33.2955C69.6907 33.354 69.6789 33.4168 69.68 33.48V60.52C69.68 60.653 69.727 60.767 69.82 60.86C69.913 60.953 70.027 61 70.16 61H86.24V61ZM95.28 61C95.3433 61.0011 95.406 60.9893 95.4645 60.9652C95.523 60.9411 95.5759 60.9053 95.62 60.86C95.6653 60.8159 95.7011 60.763 95.7252 60.7045C95.7493 60.646 95.7611 60.5832 95.76 60.52V49.6C95.76 49.467 95.827 49.4 95.96 49.4H98.48C98.56 49.4 98.627 49.453 98.68 49.56L102.72 60.6C102.8 60.867 102.987 61 103.28 61H108.16C108.453 61 108.6 60.88 108.6 60.64C108.602 60.5711 108.589 60.5027 108.56 60.44L104 48.96C103.947 48.827 103.987 48.733 104.12 48.68C105.48 48.067 106.533 47.133 107.28 45.88C108.027 44.627 108.4 43.147 108.4 41.44C108.4 39.787 108.067 38.32 107.4 37.04C106.763 35.7915 105.776 34.7559 104.56 34.06C103.333 33.353 101.933 33 100.36 33H90.6C90.5368 32.9989 90.474 33.0107 90.4155 33.0348C90.3571 33.0589 90.3041 33.0947 90.26 33.14C90.2147 33.1841 90.1789 33.237 90.1548 33.2955C90.1307 33.354 90.1189 33.4168 90.12 33.48V60.52C90.12 60.653 90.167 60.767 90.26 60.86C90.353 60.953 90.467 61 90.6 61H95.28ZM99.44 45.08H95.96C95.827 45.08 95.76 45.013 95.76 44.88V38.04C95.76 37.907 95.827 37.84 95.96 37.84H99.44C100.427 37.84 101.227 38.167 101.84 38.82C102.453 39.473 102.76 40.36 102.76 41.48C102.76 42.573 102.453 43.447 101.84 44.1C101.227 44.753 100.427 45.08 99.44 45.08ZM12.52 93.32C15.24 93.32 17.42 92.607 19.06 91.18C20.7 89.753 21.52 87.827 21.52 85.4C21.52 84.04 21.227 82.88 20.64 81.92C20.0798 80.9889 19.3385 80.1796 18.46 79.54C17.593 78.913 16.387 78.173 14.84 77.32L14 76.84C12.64 76.173 11.627 75.633 10.96 75.22C10.293 74.807 9.80002 74.373 9.48002 73.92C9.16002 73.467 9.00002 72.933 9.00002 72.32C9.00002 71.44 9.27302 70.753 9.82002 70.26C10.367 69.767 11.12 69.52 12.08 69.52C13.227 69.52 14.133 69.84 14.8 70.48C15.467 71.12 15.8 71.92 15.8 72.88V73.6C15.8 73.733 15.847 73.847 15.94 73.94C16.033 74.033 16.147 74.08 16.28 74.08H20.88C20.9432 74.0811 21.006 74.0693 21.0645 74.0452C21.123 74.0211 21.1759 73.9853 21.22 73.94C21.2653 73.8959 21.3011 73.843 21.3252 73.7845C21.3493 73.726 21.3611 73.6632 21.36 73.6V72.8C21.36 71.2 20.973 69.787 20.2 68.56C19.427 67.333 18.347 66.38 16.96 65.7C15.573 65.02 13.987 64.68 12.2 64.68C10.493 64.68 8.97302 64.993 7.64002 65.62C6.30702 66.247 5.27302 67.14 4.54002 68.3C3.80702 69.46 3.44002 70.813 3.44002 72.36C3.44002 73.907 3.80002 75.227 4.52002 76.32C5.24002 77.413 6.10702 78.307 7.12002 79C8.13302 79.693 9.44002 80.44 11.04 81.24C12.347 81.907 13.313 82.433 13.94 82.82C14.567 83.207 15.053 83.62 15.4 84.06C15.747 84.5 15.92 85.027 15.92 85.64C15.92 86.467 15.647 87.147 15.1 87.68C14.553 88.213 13.76 88.48 12.72 88.48C11.547 88.48 10.613 88.167 9.92002 87.54C9.22702 86.913 8.88002 86.133 8.88002 85.2V84.44C8.88114 84.3768 8.8693 84.314 8.84522 84.2555C8.82114 84.197 8.78534 84.1441 8.74002 84.1C8.69591 84.0547 8.64299 84.0189 8.58451 83.9948C8.52604 83.9707 8.46325 83.9589 8.40002 83.96H3.80002C3.73679 83.9589 3.674 83.9707 3.61552 83.9948C3.55705 84.0189 3.50413 84.0547 3.46002 84.1C3.4147 84.1441 3.3789 84.197 3.35482 84.2555C3.33074 84.314 3.3189 84.3768 3.32002 84.44V85.48C3.32002 87.027 3.70002 88.393 4.46002 89.58C5.22002 90.767 6.29302 91.687 7.68002 92.34C9.06702 92.993 10.68 93.32 12.52 93.32V93.32ZM33.6 93.32C35.413 93.32 37.013 92.967 38.4 92.26C39.787 91.553 40.86 90.547 41.62 89.24C42.38 87.933 42.76 86.427 42.76 84.72V84.6C42.7611 84.5368 42.7493 84.474 42.7252 84.4155C42.7011 84.357 42.6653 84.3041 42.62 84.26C42.5759 84.2147 42.523 84.1789 42.4645 84.1548C42.406 84.1307 42.3432 84.1189 42.28 84.12L37.6 83.92C37.28 83.92 37.12 84.067 37.12 84.36V84.88C37.12 85.973 36.8 86.847 36.16 87.5C35.52 88.153 34.667 88.48 33.6 88.48C32.533 88.48 31.68 88.153 31.04 87.5C30.4 86.847 30.08 85.973 30.08 84.88V73.16C30.08 72.067 30.4 71.187 31.04 70.52C31.68 69.853 32.533 69.52 33.6 69.52C34.667 69.52 35.52 69.853 36.16 70.52C36.8 71.187 37.12 72.067 37.12 73.16V73.68C37.12 73.973 37.28 74.12 37.6 74.12L42.28 73.92C42.345 73.9204 42.4093 73.9062 42.4681 73.8785C42.527 73.8508 42.5789 73.8103 42.62 73.76C42.7101 73.6617 42.76 73.5333 42.76 73.4V73.2C42.76 71.493 42.38 70 41.62 68.72C40.86 67.44 39.787 66.447 38.4 65.74C37.013 65.033 35.413 64.68 33.6 64.68C31.787 64.68 30.187 65.04 28.8 65.76C27.413 66.48 26.34 67.5 25.58 68.82C24.82 70.14 24.44 71.667 24.44 73.4V84.52C24.44 86.28 24.82 87.827 25.58 89.16C26.3271 90.481 27.4471 91.5523 28.8 92.24C30.187 92.96 31.787 93.32 33.6 93.32V93.32ZM51.52 93C51.5832 93.0011 51.646 92.9893 51.7045 92.9652C51.763 92.9411 51.8159 92.9053 51.86 92.86C51.9053 92.8159 51.9411 92.763 51.9652 92.7045C51.9893 92.646 52.0011 92.5832 52 92.52V65.48C52.0011 65.4168 51.9893 65.354 51.9652 65.2955C51.9411 65.237 51.9053 65.1841 51.86 65.14C51.8159 65.0947 51.763 65.0589 51.7045 65.0348C51.646 65.0107 51.5832 64.9989 51.52 65H46.84C46.7768 64.9989 46.714 65.0107 46.6555 65.0348C46.5971 65.0589 46.5441 65.0947 46.5 65.14C46.4547 65.1841 46.4189 65.237 46.3948 65.2955C46.3707 65.354 46.3589 65.4168 46.36 65.48V92.52C46.36 92.653 46.407 92.767 46.5 92.86C46.593 92.953 46.707 93 46.84 93H51.52V93ZM64.6 93.32C67.32 93.32 69.5 92.607 71.14 91.18C72.78 89.753 73.6 87.827 73.6 85.4C73.6 84.04 73.307 82.88 72.72 81.92C72.1598 80.9889 71.4186 80.1796 70.54 79.54C69.673 78.913 68.467 78.173 66.92 77.32L66.08 76.84C64.72 76.173 63.707 75.633 63.04 75.22C62.373 74.807 61.88 74.373 61.56 73.92C61.24 73.467 61.08 72.933 61.08 72.32C61.08 71.44 61.353 70.753 61.9 70.26C62.447 69.767 63.2 69.52 64.16 69.52C65.307 69.52 66.213 69.84 66.88 70.48C67.547 71.12 67.88 71.92 67.88 72.88V73.6C67.88 73.733 67.927 73.847 68.02 73.94C68.113 74.033 68.227 74.08 68.36 74.08H72.96C73.0233 74.0811 73.086 74.0693 73.1445 74.0452C73.203 74.0211 73.2559 73.9853 73.3 73.94C73.3453 73.8959 73.3811 73.843 73.4052 73.7845C73.4293 73.726 73.4411 73.6632 73.44 73.6V72.8C73.44 71.2 73.053 69.787 72.28 68.56C71.507 67.333 70.427 66.38 69.04 65.7C67.653 65.02 66.067 64.68 64.28 64.68C62.573 64.68 61.053 64.993 59.72 65.62C58.387 66.247 57.353 67.14 56.62 68.3C55.887 69.46 55.52 70.813 55.52 72.36C55.52 73.907 55.88 75.227 56.6 76.32C57.32 77.413 58.187 78.307 59.2 79C60.213 79.693 61.52 80.44 63.12 81.24C64.427 81.907 65.393 82.433 66.02 82.82C66.647 83.207 67.133 83.62 67.48 84.06C67.827 84.5 68 85.027 68 85.64C68 86.467 67.727 87.147 67.18 87.68C66.633 88.213 65.84 88.48 64.8 88.48C63.627 88.48 62.693 88.167 62 87.54C61.307 86.913 60.96 86.133 60.96 85.2V84.44C60.9611 84.3768 60.9493 84.314 60.9252 84.2555C60.9011 84.197 60.8653 84.1441 60.82 84.1C60.7759 84.0547 60.723 84.0189 60.6645 83.9948C60.606 83.9707 60.5433 83.9589 60.48 83.96H55.88C55.8168 83.9589 55.754 83.9707 55.6955 83.9948C55.637 84.0189 55.5841 84.0547 55.54 84.1C55.4947 84.1441 55.4589 84.197 55.4348 84.2555C55.4107 84.314 55.3989 84.3768 55.4 84.44V85.48C55.4 87.027 55.78 88.393 56.54 89.58C57.3 90.767 58.373 91.687 59.76 92.34C61.147 92.993 62.76 93.32 64.6 93.32V93.32ZM85.4 93.32C88.12 93.32 90.3 92.607 91.94 91.18C93.58 89.753 94.4 87.827 94.4 85.4C94.4 84.04 94.107 82.88 93.52 81.92C92.9598 80.9889 92.2185 80.1796 91.34 79.54C90.473 78.913 89.267 78.173 87.72 77.32L86.88 76.84C85.52 76.173 84.507 75.633 83.84 75.22C83.173 74.807 82.68 74.373 82.36 73.92C82.04 73.467 81.88 72.933 81.88 72.32C81.88 71.44 82.153 70.753 82.7 70.26C83.247 69.767 84 69.52 84.96 69.52C86.107 69.52 87.013 69.84 87.68 70.48C88.347 71.12 88.68 71.92 88.68 72.88V73.6C88.68 73.733 88.727 73.847 88.82 73.94C88.913 74.033 89.027 74.08 89.16 74.08H93.76C93.8233 74.0811 93.886 74.0693 93.9445 74.0452C94.003 74.0211 94.0559 73.9853 94.1 73.94C94.1453 73.8959 94.1811 73.843 94.2052 73.7845C94.2293 73.726 94.2411 73.6632 94.24 73.6V72.8C94.24 71.2 93.853 69.787 93.08 68.56C92.307 67.333 91.227 66.38 89.84 65.7C88.453 65.02 86.867 64.68 85.08 64.68C83.373 64.68 81.853 64.993 80.52 65.62C79.187 66.247 78.153 67.14 77.42 68.3C76.687 69.46 76.32 70.813 76.32 72.36C76.32 73.907 76.68 75.227 77.4 76.32C78.12 77.413 78.987 78.307 80 79C81.013 79.693 82.32 80.44 83.92 81.24C85.227 81.907 86.193 82.433 86.82 82.82C87.447 83.207 87.933 83.62 88.28 84.06C88.627 84.5 88.8 85.027 88.8 85.64C88.8 86.467 88.527 87.147 87.98 87.68C87.433 88.213 86.64 88.48 85.6 88.48C84.427 88.48 83.493 88.167 82.8 87.54C82.107 86.913 81.76 86.133 81.76 85.2V84.44C81.7611 84.3768 81.7493 84.314 81.7252 84.2555C81.7011 84.197 81.6653 84.1441 81.62 84.1C81.5759 84.0547 81.523 84.0189 81.4645 83.9948C81.406 83.9707 81.3433 83.9589 81.28 83.96H76.68C76.6168 83.9589 76.554 83.9707 76.4955 83.9948C76.4371 84.0189 76.3841 84.0547 76.34 84.1C76.2947 84.1441 76.2589 84.197 76.2348 84.2555C76.2107 84.314 76.1989 84.3768 76.2 84.44V85.48C76.2 87.027 76.58 88.393 77.34 89.58C78.1 90.767 79.173 91.687 80.56 92.34C81.947 92.993 83.56 93.32 85.4 93.32V93.32ZM106.6 93.36C108.44 93.36 110.067 92.987 111.48 92.24C112.893 91.493 113.987 90.44 114.76 89.08C115.533 87.72 115.92 86.133 115.92 84.32V73.68C115.92 71.893 115.533 70.32 114.76 68.96C113.987 67.6 112.893 66.547 111.48 65.8C110.067 65.053 108.44 64.68 106.6 64.68C104.76 64.68 103.14 65.053 101.74 65.8C100.371 66.5165 99.2389 67.6141 98.48 68.96C97.707 70.32 97.32 71.893 97.32 73.68V84.32C97.32 86.133 97.707 87.72 98.48 89.08C99.2389 90.426 100.371 91.5235 101.74 92.24C103.14 92.987 104.76 93.36 106.6 93.36ZM106.6 88.52C105.507 88.52 104.627 88.153 103.96 87.42C103.293 86.687 102.96 85.733 102.96 84.56V73.52C102.96 72.32 103.293 71.353 103.96 70.62C104.627 69.887 105.507 69.52 106.6 69.52C107.72 69.52 108.613 69.887 109.28 70.62C109.947 71.353 110.28 72.32 110.28 73.52V84.56C110.28 85.733 109.947 86.687 109.28 87.42C108.613 88.153 107.72 88.52 106.6 88.52ZM124.84 93C124.903 93.0011 124.966 92.9893 125.025 92.9652C125.083 92.9411 125.136 92.9053 125.18 92.86C125.225 92.8159 125.261 92.763 125.285 92.7045C125.309 92.646 125.321 92.5832 125.32 92.52V81.6C125.32 81.467 125.387 81.4 125.52 81.4H128.04C128.12 81.4 128.187 81.453 128.24 81.56L132.28 92.6C132.36 92.867 132.547 93 132.84 93H137.72C138.013 93 138.16 92.88 138.16 92.64C138.162 92.5711 138.149 92.5027 138.12 92.44L133.56 80.96C133.507 80.827 133.547 80.733 133.68 80.68C135.04 80.067 136.093 79.133 136.84 77.88C137.587 76.627 137.96 75.147 137.96 73.44C137.96 71.787 137.627 70.32 136.96 69.04C136.323 67.7915 135.336 66.7559 134.12 66.06C132.893 65.353 131.493 65 129.92 65H120.16C120.097 64.9989 120.034 65.0107 119.976 65.0348C119.917 65.0589 119.864 65.0947 119.82 65.14C119.775 65.1841 119.739 65.237 119.715 65.2955C119.691 65.354 119.679 65.4168 119.68 65.48V92.52C119.68 92.653 119.727 92.767 119.82 92.86C119.913 92.953 120.027 93 120.16 93H124.84V93ZM129 77.08H125.52C125.387 77.08 125.32 77.013 125.32 76.88V70.04C125.32 69.907 125.387 69.84 125.52 69.84H129C129.987 69.84 130.787 70.167 131.4 70.82C132.013 71.473 132.32 72.36 132.32 73.48C132.32 74.573 132.013 75.447 131.4 76.1C130.787 76.753 129.987 77.08 129 77.08ZM149.8 93.32C152.52 93.32 154.7 92.607 156.34 91.18C157.98 89.753 158.8 87.827 158.8 85.4C158.8 84.04 158.507 82.88 157.92 81.92C157.36 80.9889 156.619 80.1796 155.74 79.54C154.873 78.913 153.667 78.173 152.12 77.32L151.28 76.84C149.92 76.173 148.907 75.633 148.24 75.22C147.573 74.807 147.08 74.373 146.76 73.92C146.44 73.467 146.28 72.933 146.28 72.32C146.28 71.44 146.553 70.753 147.1 70.26C147.647 69.767 148.4 69.52 149.36 69.52C150.507 69.52 151.413 69.84 152.08 70.48C152.747 71.12 153.08 71.92 153.08 72.88V73.6C153.08 73.733 153.127 73.847 153.22 73.94C153.313 74.033 153.427 74.08 153.56 74.08H158.16C158.223 74.0811 158.286 74.0693 158.345 74.0452C158.403 74.0211 158.456 73.9853 158.5 73.94C158.545 73.8959 158.581 73.843 158.605 73.7845C158.629 73.726 158.641 73.6632 158.64 73.6V72.8C158.64 71.2 158.253 69.787 157.48 68.56C156.707 67.333 155.627 66.38 154.24 65.7C152.853 65.02 151.267 64.68 149.48 64.68C147.773 64.68 146.253 64.993 144.92 65.62C143.587 66.247 142.553 67.14 141.82 68.3C141.087 69.46 140.72 70.813 140.72 72.36C140.72 73.907 141.08 75.227 141.8 76.32C142.52 77.413 143.387 78.307 144.4 79C145.413 79.693 146.72 80.44 148.32 81.24C149.627 81.907 150.593 82.433 151.22 82.82C151.847 83.207 152.333 83.62 152.68 84.06C153.027 84.5 153.2 85.027 153.2 85.64C153.2 86.467 152.927 87.147 152.38 87.68C151.833 88.213 151.04 88.48 150 88.48C148.827 88.48 147.893 88.167 147.2 87.54C146.507 86.913 146.16 86.133 146.16 85.2V84.44C146.161 84.3768 146.149 84.314 146.125 84.2555C146.101 84.197 146.065 84.1441 146.02 84.1C145.976 84.0547 145.923 84.0189 145.865 83.9948C145.806 83.9707 145.743 83.9589 145.68 83.96H141.08C141.017 83.9589 140.954 83.9707 140.896 83.9948C140.837 84.0189 140.784 84.0547 140.74 84.1C140.695 84.1441 140.659 84.197 140.635 84.2555C140.611 84.314 140.599 84.3768 140.6 84.44V85.48C140.6 87.027 140.98 88.393 141.74 89.58C142.5 90.767 143.573 91.687 144.96 92.34C146.347 92.993 147.96 93.32 149.8 93.32V93.32Z" fill="black"/>
</g>
<path d="M9.28002 29C9.34325 29.0011 9.40604 28.9893 9.46451 28.9652C9.52299 28.9411 9.57591 28.9053 9.62002 28.86C9.66534 28.8159 9.70114 28.763 9.72522 28.7045C9.74929 28.646 9.76114 28.5832 9.76002 28.52V17.6C9.76002 17.467 9.82702 17.4 9.96002 17.4H12.48C12.56 17.4 12.627 17.453 12.68 17.56L16.72 28.6C16.8 28.867 16.987 29 17.28 29H22.16C22.453 29 22.6 28.88 22.6 28.64C22.6023 28.5711 22.5887 28.5027 22.56 28.44L18 16.96C17.947 16.827 17.987 16.733 18.12 16.68C19.48 16.067 20.533 15.133 21.28 13.88C22.027 12.627 22.4 11.147 22.4 9.44C22.4 7.787 22.067 6.32 21.4 5.04C20.7634 3.79155 19.7764 2.75591 18.56 2.06C17.333 1.353 15.933 1 14.36 1H4.60002C4.53679 0.998879 4.474 1.01072 4.41553 1.0348C4.35705 1.05888 4.30412 1.09468 4.26002 1.14C4.2147 1.18411 4.1789 1.23703 4.15482 1.29551C4.13074 1.35398 4.1189 1.41677 4.12002 1.48V28.52C4.12002 28.653 4.16702 28.767 4.26002 28.86C4.35302 28.953 4.46702 29 4.60002 29H9.28002V29ZM13.44 13.08H9.96002C9.82702 13.08 9.76002 13.013 9.76002 12.88V6.04C9.76002 5.907 9.82702 5.84 9.96002 5.84H13.44C14.427 5.84 15.227 6.167 15.84 6.82C16.453 7.473 16.76 8.36 16.76 9.48C16.76 10.573 16.453 11.447 15.84 12.1C15.227 12.753 14.427 13.08 13.44 13.08V13.08ZM34.64 29.36C36.48 29.36 38.107 28.987 39.52 28.24C40.933 27.493 42.027 26.44 42.8 25.08C43.573 23.72 43.96 22.133 43.96 20.32V9.68C43.96 7.893 43.573 6.32 42.8 4.96C42.027 3.6 40.933 2.547 39.52 1.8C38.107 1.053 36.48 0.68 34.64 0.68C32.8 0.68 31.18 1.053 29.78 1.8C28.4111 2.51655 27.2789 3.61405 26.52 4.96C25.747 6.32 25.36 7.893 25.36 9.68V20.32C25.36 22.133 25.747 23.72 26.52 25.08C27.2789 26.426 28.4111 27.5235 29.78 28.24C31.18 28.987 32.8 29.36 34.64 29.36V29.36ZM34.64 24.52C33.547 24.52 32.667 24.153 32 23.42C31.333 22.687 31 21.733 31 20.56V9.52C31 8.32 31.333 7.353 32 6.62C32.667 5.887 33.547 5.52 34.64 5.52C35.76 5.52 36.653 5.887 37.32 6.62C37.987 7.353 38.32 8.32 38.32 9.52V20.56C38.32 21.733 37.987 22.687 37.32 23.42C36.653 24.153 35.76 24.52 34.64 24.52V24.52ZM56.4 29.32C58.213 29.32 59.813 28.967 61.2 28.26C62.587 27.553 63.66 26.547 64.42 25.24C65.18 23.933 65.56 22.427 65.56 20.72V20.6C65.5611 20.5368 65.5493 20.474 65.5252 20.4155C65.5011 20.357 65.4653 20.3041 65.42 20.26C65.3759 20.2147 65.323 20.1789 65.2645 20.1548C65.206 20.1307 65.1433 20.1189 65.08 20.12L60.4 19.92C60.08 19.92 59.92 20.067 59.92 20.36V20.88C59.92 21.973 59.6 22.847 58.96 23.5C58.32 24.153 57.467 24.48 56.4 24.48C55.333 24.48 54.48 24.153 53.84 23.5C53.2 22.847 52.88 21.973 52.88 20.88V9.16C52.88 8.067 53.2 7.187 53.84 6.52C54.48 5.853 55.333 5.52 56.4 5.52C57.467 5.52 58.32 5.853 58.96 6.52C59.6 7.187 59.92 8.067 59.92 9.16V9.68C59.92 9.973 60.08 10.12 60.4 10.12L65.08 9.92C65.145 9.92037 65.2093 9.90619 65.2681 9.87851C65.327 9.85083 65.3789 9.81033 65.42 9.76C65.5101 9.66172 65.56 9.53329 65.56 9.4V9.2C65.56 7.493 65.18 6 64.42 4.72C63.66 3.44 62.587 2.447 61.2 1.74C59.813 1.033 58.213 0.68 56.4 0.68C54.587 0.68 52.987 1.04 51.6 1.76C50.213 2.48 49.14 3.5 48.38 4.82C47.62 6.14 47.24 7.667 47.24 9.4V20.52C47.24 22.28 47.62 23.827 48.38 25.16C49.1271 26.481 50.2471 27.5523 51.6 28.24C52.987 28.96 54.587 29.32 56.4 29.32V29.32ZM74.32 29C74.3833 29.0011 74.446 28.9893 74.5045 28.9652C74.563 28.9411 74.6159 28.9053 74.66 28.86C74.7053 28.8159 74.7411 28.763 74.7652 28.7045C74.7893 28.646 74.8011 28.5832 74.8 28.52V20.52C74.8 20.467 74.827 20.387 74.88 20.28L76.68 17.68C76.733 17.6 76.787 17.56 76.84 17.56C76.893 17.56 76.933 17.6 76.96 17.68L82.64 28.64C82.773 28.88 82.96 29 83.2 29H88.32C88.613 29 88.76 28.893 88.76 28.68C88.7503 28.5953 88.7231 28.5136 88.68 28.44L80.84 13.32C80.8132 13.2286 80.8132 13.1314 80.84 13.04L88.24 1.56C88.347 1.4 88.367 1.267 88.3 1.16C88.233 1.053 88.107 1 87.92 1H82.76C82.6464 0.997604 82.5344 1.02611 82.4357 1.08247C82.3371 1.13883 82.2556 1.22093 82.2 1.32L75.04 12.2C75.013 12.28 74.967 12.307 74.9 12.28C74.833 12.253 74.8 12.2 74.8 12.12V1.48C74.8011 1.41677 74.7893 1.35398 74.7652 1.29551C74.7411 1.23703 74.7053 1.18411 74.66 1.14C74.6159 1.09468 74.563 1.05888 74.5045 1.0348C74.446 1.01072 74.3833 0.998879 74.32 1H69.64C69.5768 0.998879 69.514 1.01072 69.4555 1.0348C69.3971 1.05888 69.3441 1.09468 69.3 1.14C69.2547 1.18411 69.2189 1.23703 69.1948 1.29551C69.1707 1.35398 69.1589 1.41677 69.16 1.48V28.52C69.16 28.653 69.207 28.767 69.3 28.86C69.393 28.953 69.507 29 69.64 29H74.32V29ZM9.16002 61C9.22325 61.0011 9.28604 60.9893 9.34451 60.9652C9.40299 60.9411 9.45591 60.9053 9.50002 60.86C9.54534 60.8159 9.58114 60.763 9.60522 60.7045C9.6293 60.646 9.64114 60.5832 9.64002 60.52V50.12C9.64002 49.987 9.70702 49.92 9.84002 49.92H14.16C15.76 49.92 17.18 49.573 18.42 48.88C19.6457 48.2012 20.6467 47.1794 21.3 45.94C21.98 44.673 22.32 43.213 22.32 41.56C22.32 39.88 21.98 38.387 21.3 37.08C20.62 35.773 19.66 34.76 18.42 34.04C17.18 33.32 15.76 32.96 14.16 32.96H4.48002C4.41679 32.9589 4.354 32.9707 4.29552 32.9948C4.23705 33.0189 4.18413 33.0547 4.14002 33.1C4.0947 33.1441 4.0589 33.197 4.03482 33.2555C4.01074 33.314 3.9989 33.3768 4.00002 33.44V60.52C4.00002 60.653 4.04702 60.767 4.14002 60.86C4.23302 60.953 4.34702 61 4.48002 61H9.16002V61ZM13.24 45.44H9.84002C9.70702 45.44 9.64002 45.373 9.64002 45.24V38.04C9.64002 37.907 9.70702 37.84 9.84002 37.84H13.24C14.28 37.84 15.113 38.187 15.74 38.88C16.367 39.573 16.68 40.507 16.68 41.68C16.68 42.827 16.367 43.74 15.74 44.42C15.113 45.1 14.28 45.44 13.24 45.44V45.44ZM29.36 61C29.627 61 29.8 60.867 29.88 60.6L30.8 56.68C30.827 56.573 30.893 56.52 31 56.52H38.48C38.587 56.52 38.653 56.573 38.68 56.68L39.6 60.6C39.68 60.867 39.867 61 40.16 61H45.04C45.333 61 45.48 60.88 45.48 60.64L45.44 60.48L38.24 33.4C38.16 33.133 37.973 33 37.68 33H31.88C31.587 33 31.4 33.133 31.32 33.4L24.12 60.48C24.04 60.827 24.173 61 24.52 61H29.36V61ZM37.36 52.16H32.08C32.0215 52.1581 31.9653 52.1371 31.92 52.1C31.867 52.06 31.853 52 31.88 51.92L34.56 40.32C34.587 40.213 34.627 40.16 34.68 40.16C34.733 40.16 34.773 40.213 34.8 40.32L37.56 51.92C37.587 52 37.573 52.06 37.52 52.1C37.4747 52.1371 37.4185 52.1581 37.36 52.16V52.16ZM53.48 61C53.5433 61.0011 53.606 60.9893 53.6645 60.9652C53.723 60.9411 53.7759 60.9053 53.82 60.86C53.8653 60.8159 53.9011 60.763 53.9252 60.7045C53.9493 60.646 53.9611 60.5832 53.96 60.52V50.12C53.96 49.987 54.027 49.92 54.16 49.92H58.48C60.08 49.92 61.5 49.573 62.74 48.88C63.9657 48.2012 64.9667 47.1794 65.62 45.94C66.3 44.673 66.64 43.213 66.64 41.56C66.64 39.88 66.3 38.387 65.62 37.08C64.94 35.773 63.98 34.76 62.74 34.04C61.5 33.32 60.08 32.96 58.48 32.96H48.8C48.7368 32.9589 48.674 32.9707 48.6155 32.9948C48.5571 33.0189 48.5041 33.0547 48.46 33.1C48.4147 33.1441 48.3789 33.197 48.3548 33.2555C48.3307 33.314 48.3189 33.3768 48.32 33.44V60.52C48.32 60.653 48.367 60.767 48.46 60.86C48.553 60.953 48.667 61 48.8 61H53.48V61ZM57.56 45.44H54.16C54.027 45.44 53.96 45.373 53.96 45.24V38.04C53.96 37.907 54.027 37.84 54.16 37.84H57.56C58.6 37.84 59.433 38.187 60.06 38.88C60.687 39.573 61 40.507 61 41.68C61 42.827 60.687 43.74 60.06 44.42C59.433 45.1 58.6 45.44 57.56 45.44V45.44ZM86.24 61C86.3032 61.0011 86.366 60.9893 86.4245 60.9652C86.483 60.9411 86.5359 60.9053 86.58 60.86C86.6253 60.8159 86.6611 60.763 86.6852 60.7045C86.7093 60.646 86.7211 60.5832 86.72 60.52V56.64C86.7211 56.5768 86.7093 56.514 86.6852 56.4555C86.6611 56.397 86.6253 56.3441 86.58 56.3C86.5359 56.2547 86.483 56.2189 86.4245 56.1948C86.366 56.1707 86.3032 56.1589 86.24 56.16H75.52C75.387 56.16 75.32 56.093 75.32 55.96V49.52C75.32 49.387 75.387 49.32 75.52 49.32H82.2C82.2632 49.3211 82.326 49.3093 82.3845 49.2852C82.443 49.2611 82.4959 49.2253 82.54 49.18C82.5853 49.1359 82.6211 49.083 82.6452 49.0245C82.6693 48.966 82.6811 48.9032 82.68 48.84V44.96C82.6811 44.8968 82.6693 44.834 82.6452 44.7755C82.6211 44.717 82.5853 44.6641 82.54 44.62C82.4959 44.5747 82.443 44.5389 82.3845 44.5148C82.326 44.4907 82.2632 44.4789 82.2 44.48H75.52C75.387 44.48 75.32 44.413 75.32 44.28V38.04C75.32 37.907 75.387 37.84 75.52 37.84H86.24C86.3032 37.8411 86.366 37.8293 86.4245 37.8052C86.483 37.7811 86.5359 37.7453 86.58 37.7C86.6253 37.6559 86.6611 37.603 86.6852 37.5445C86.7093 37.486 86.7211 37.4232 86.72 37.36V33.48C86.7211 33.4168 86.7093 33.354 86.6852 33.2955C86.6611 33.237 86.6253 33.1841 86.58 33.14C86.5359 33.0947 86.483 33.0589 86.4245 33.0348C86.366 33.0107 86.3032 32.9989 86.24 33H70.16C70.0968 32.9989 70.034 33.0107 69.9755 33.0348C69.9171 33.0589 69.8641 33.0947 69.82 33.14C69.7747 33.1841 69.7389 33.237 69.7148 33.2955C69.6907 33.354 69.6789 33.4168 69.68 33.48V60.52C69.68 60.653 69.727 60.767 69.82 60.86C69.913 60.953 70.027 61 70.16 61H86.24V61ZM95.28 61C95.3433 61.0011 95.406 60.9893 95.4645 60.9652C95.523 60.9411 95.5759 60.9053 95.62 60.86C95.6653 60.8159 95.7011 60.763 95.7252 60.7045C95.7493 60.646 95.7611 60.5832 95.76 60.52V49.6C95.76 49.467 95.827 49.4 95.96 49.4H98.48C98.56 49.4 98.627 49.453 98.68 49.56L102.72 60.6C102.8 60.867 102.987 61 103.28 61H108.16C108.453 61 108.6 60.88 108.6 60.64C108.602 60.5711 108.589 60.5027 108.56 60.44L104 48.96C103.947 48.827 103.987 48.733 104.12 48.68C105.48 48.067 106.533 47.133 107.28 45.88C108.027 44.627 108.4 43.147 108.4 41.44C108.4 39.787 108.067 38.32 107.4 37.04C106.763 35.7915 105.776 34.7559 104.56 34.06C103.333 33.353 101.933 33 100.36 33H90.6C90.5368 32.9989 90.474 33.0107 90.4155 33.0348C90.3571 33.0589 90.3041 33.0947 90.26 33.14C90.2147 33.1841 90.1789 33.237 90.1548 33.2955C90.1307 33.354 90.1189 33.4168 90.12 33.48V60.52C90.12 60.653 90.167 60.767 90.26 60.86C90.353 60.953 90.467 61 90.6 61H95.28ZM99.44 45.08H95.96C95.827 45.08 95.76 45.013 95.76 44.88V38.04C95.76 37.907 95.827 37.84 95.96 37.84H99.44C100.427 37.84 101.227 38.167 101.84 38.82C102.453 39.473 102.76 40.36 102.76 41.48C102.76 42.573 102.453 43.447 101.84 44.1C101.227 44.753 100.427 45.08 99.44 45.08ZM12.52 93.32C15.24 93.32 17.42 92.607 19.06 91.18C20.7 89.753 21.52 87.827 21.52 85.4C21.52 84.04 21.227 82.88 20.64 81.92C20.0798 80.9889 19.3385 80.1796 18.46 79.54C17.593 78.913 16.387 78.173 14.84 77.32L14 76.84C12.64 76.173 11.627 75.633 10.96 75.22C10.293 74.807 9.80002 74.373 9.48002 73.92C9.16002 73.467 9.00002 72.933 9.00002 72.32C9.00002 71.44 9.27302 70.753 9.82002 70.26C10.367 69.767 11.12 69.52 12.08 69.52C13.227 69.52 14.133 69.84 14.8 70.48C15.467 71.12 15.8 71.92 15.8 72.88V73.6C15.8 73.733 15.847 73.847 15.94 73.94C16.033 74.033 16.147 74.08 16.28 74.08H20.88C20.9432 74.0811 21.006 74.0693 21.0645 74.0452C21.123 74.0211 21.1759 73.9853 21.22 73.94C21.2653 73.8959 21.3011 73.843 21.3252 73.7845C21.3493 73.726 21.3611 73.6632 21.36 73.6V72.8C21.36 71.2 20.973 69.787 20.2 68.56C19.427 67.333 18.347 66.38 16.96 65.7C15.573 65.02 13.987 64.68 12.2 64.68C10.493 64.68 8.97302 64.993 7.64002 65.62C6.30702 66.247 5.27302 67.14 4.54002 68.3C3.80702 69.46 3.44002 70.813 3.44002 72.36C3.44002 73.907 3.80002 75.227 4.52002 76.32C5.24002 77.413 6.10702 78.307 7.12002 79C8.13302 79.693 9.44002 80.44 11.04 81.24C12.347 81.907 13.313 82.433 13.94 82.82C14.567 83.207 15.053 83.62 15.4 84.06C15.747 84.5 15.92 85.027 15.92 85.64C15.92 86.467 15.647 87.147 15.1 87.68C14.553 88.213 13.76 88.48 12.72 88.48C11.547 88.48 10.613 88.167 9.92002 87.54C9.22702 86.913 8.88002 86.133 8.88002 85.2V84.44C8.88114 84.3768 8.8693 84.314 8.84522 84.2555C8.82114 84.197 8.78534 84.1441 8.74002 84.1C8.69591 84.0547 8.64299 84.0189 8.58451 83.9948C8.52604 83.9707 8.46325 83.9589 8.40002 83.96H3.80002C3.73679 83.9589 3.674 83.9707 3.61552 83.9948C3.55705 84.0189 3.50413 84.0547 3.46002 84.1C3.4147 84.1441 3.3789 84.197 3.35482 84.2555C3.33074 84.314 3.3189 84.3768 3.32002 84.44V85.48C3.32002 87.027 3.70002 88.393 4.46002 89.58C5.22002 90.767 6.29302 91.687 7.68002 92.34C9.06702 92.993 10.68 93.32 12.52 93.32V93.32ZM33.6 93.32C35.413 93.32 37.013 92.967 38.4 92.26C39.787 91.553 40.86 90.547 41.62 89.24C42.38 87.933 42.76 86.427 42.76 84.72V84.6C42.7611 84.5368 42.7493 84.474 42.7252 84.4155C42.7011 84.357 42.6653 84.3041 42.62 84.26C42.5759 84.2147 42.523 84.1789 42.4645 84.1548C42.406 84.1307 42.3432 84.1189 42.28 84.12L37.6 83.92C37.28 83.92 37.12 84.067 37.12 84.36V84.88C37.12 85.973 36.8 86.847 36.16 87.5C35.52 88.153 34.667 88.48 33.6 88.48C32.533 88.48 31.68 88.153 31.04 87.5C30.4 86.847 30.08 85.973 30.08 84.88V73.16C30.08 72.067 30.4 71.187 31.04 70.52C31.68 69.853 32.533 69.52 33.6 69.52C34.667 69.52 35.52 69.853 36.16 70.52C36.8 71.187 37.12 72.067 37.12 73.16V73.68C37.12 73.973 37.28 74.12 37.6 74.12L42.28 73.92C42.345 73.9204 42.4093 73.9062 42.4681 73.8785C42.527 73.8508 42.5789 73.8103 42.62 73.76C42.7101 73.6617 42.76 73.5333 42.76 73.4V73.2C42.76 71.493 42.38 70 41.62 68.72C40.86 67.44 39.787 66.447 38.4 65.74C37.013 65.033 35.413 64.68 33.6 64.68C31.787 64.68 30.187 65.04 28.8 65.76C27.413 66.48 26.34 67.5 25.58 68.82C24.82 70.14 24.44 71.667 24.44 73.4V84.52C24.44 86.28 24.82 87.827 25.58 89.16C26.3271 90.481 27.4471 91.5523 28.8 92.24C30.187 92.96 31.787 93.32 33.6 93.32V93.32ZM51.52 93C51.5832 93.0011 51.646 92.9893 51.7045 92.9652C51.763 92.9411 51.8159 92.9053 51.86 92.86C51.9053 92.8159 51.9411 92.763 51.9652 92.7045C51.9893 92.646 52.0011 92.5832 52 92.52V65.48C52.0011 65.4168 51.9893 65.354 51.9652 65.2955C51.9411 65.237 51.9053 65.1841 51.86 65.14C51.8159 65.0947 51.763 65.0589 51.7045 65.0348C51.646 65.0107 51.5832 64.9989 51.52 65H46.84C46.7768 64.9989 46.714 65.0107 46.6555 65.0348C46.5971 65.0589 46.5441 65.0947 46.5 65.14C46.4547 65.1841 46.4189 65.237 46.3948 65.2955C46.3707 65.354 46.3589 65.4168 46.36 65.48V92.52C46.36 92.653 46.407 92.767 46.5 92.86C46.593 92.953 46.707 93 46.84 93H51.52V93ZM64.6 93.32C67.32 93.32 69.5 92.607 71.14 91.18C72.78 89.753 73.6 87.827 73.6 85.4C73.6 84.04 73.307 82.88 72.72 81.92C72.1598 80.9889 71.4186 80.1796 70.54 79.54C69.673 78.913 68.467 78.173 66.92 77.32L66.08 76.84C64.72 76.173 63.707 75.633 63.04 75.22C62.373 74.807 61.88 74.373 61.56 73.92C61.24 73.467 61.08 72.933 61.08 72.32C61.08 71.44 61.353 70.753 61.9 70.26C62.447 69.767 63.2 69.52 64.16 69.52C65.307 69.52 66.213 69.84 66.88 70.48C67.547 71.12 67.88 71.92 67.88 72.88V73.6C67.88 73.733 67.927 73.847 68.02 73.94C68.113 74.033 68.227 74.08 68.36 74.08H72.96C73.0233 74.0811 73.086 74.0693 73.1445 74.0452C73.203 74.0211 73.2559 73.9853 73.3 73.94C73.3453 73.8959 73.3811 73.843 73.4052 73.7845C73.4293 73.726 73.4411 73.6632 73.44 73.6V72.8C73.44 71.2 73.053 69.787 72.28 68.56C71.507 67.333 70.427 66.38 69.04 65.7C67.653 65.02 66.067 64.68 64.28 64.68C62.573 64.68 61.053 64.993 59.72 65.62C58.387 66.247 57.353 67.14 56.62 68.3C55.887 69.46 55.52 70.813 55.52 72.36C55.52 73.907 55.88 75.227 56.6 76.32C57.32 77.413 58.187 78.307 59.2 79C60.213 79.693 61.52 80.44 63.12 81.24C64.427 81.907 65.393 82.433 66.02 82.82C66.647 83.207 67.133 83.62 67.48 84.06C67.827 84.5 68 85.027 68 85.64C68 86.467 67.727 87.147 67.18 87.68C66.633 88.213 65.84 88.48 64.8 88.48C63.627 88.48 62.693 88.167 62 87.54C61.307 86.913 60.96 86.133 60.96 85.2V84.44C60.9611 84.3768 60.9493 84.314 60.9252 84.2555C60.9011 84.197 60.8653 84.1441 60.82 84.1C60.7759 84.0547 60.723 84.0189 60.6645 83.9948C60.606 83.9707 60.5433 83.9589 60.48 83.96H55.88C55.8168 83.9589 55.754 83.9707 55.6955 83.9948C55.637 84.0189 55.5841 84.0547 55.54 84.1C55.4947 84.1441 55.4589 84.197 55.4348 84.2555C55.4107 84.314 55.3989 84.3768 55.4 84.44V85.48C55.4 87.027 55.78 88.393 56.54 89.58C57.3 90.767 58.373 91.687 59.76 92.34C61.147 92.993 62.76 93.32 64.6 93.32V93.32ZM85.4 93.32C88.12 93.32 90.3 92.607 91.94 91.18C93.58 89.753 94.4 87.827 94.4 85.4C94.4 84.04 94.107 82.88 93.52 81.92C92.9598 80.9889 92.2185 80.1796 91.34 79.54C90.473 78.913 89.267 78.173 87.72 77.32L86.88 76.84C85.52 76.173 84.507 75.633 83.84 75.22C83.173 74.807 82.68 74.373 82.36 73.92C82.04 73.467 81.88 72.933 81.88 72.32C81.88 71.44 82.153 70.753 82.7 70.26C83.247 69.767 84 69.52 84.96 69.52C86.107 69.52 87.013 69.84 87.68 70.48C88.347 71.12 88.68 71.92 88.68 72.88V73.6C88.68 73.733 88.727 73.847 88.82 73.94C88.913 74.033 89.027 74.08 89.16 74.08H93.76C93.8233 74.0811 93.886 74.0693 93.9445 74.0452C94.003 74.0211 94.0559 73.9853 94.1 73.94C94.1453 73.8959 94.1811 73.843 94.2052 73.7845C94.2293 73.726 94.2411 73.6632 94.24 73.6V72.8C94.24 71.2 93.853 69.787 93.08 68.56C92.307 67.333 91.227 66.38 89.84 65.7C88.453 65.02 86.867 64.68 85.08 64.68C83.373 64.68 81.853 64.993 80.52 65.62C79.187 66.247 78.153 67.14 77.42 68.3C76.687 69.46 76.32 70.813 76.32 72.36C76.32 73.907 76.68 75.227 77.4 76.32C78.12 77.413 78.987 78.307 80 79C81.013 79.693 82.32 80.44 83.92 81.24C85.227 81.907 86.193 82.433 86.82 82.82C87.447 83.207 87.933 83.62 88.28 84.06C88.627 84.5 88.8 85.027 88.8 85.64C88.8 86.467 88.527 87.147 87.98 87.68C87.433 88.213 86.64 88.48 85.6 88.48C84.427 88.48 83.493 88.167 82.8 87.54C82.107 86.913 81.76 86.133 81.76 85.2V84.44C81.7611 84.3768 81.7493 84.314 81.7252 84.2555C81.7011 84.197 81.6653 84.1441 81.62 84.1C81.5759 84.0547 81.523 84.0189 81.4645 83.9948C81.406 83.9707 81.3433 83.9589 81.28 83.96H76.68C76.6168 83.9589 76.554 83.9707 76.4955 83.9948C76.4371 84.0189 76.3841 84.0547 76.34 84.1C76.2947 84.1441 76.2589 84.197 76.2348 84.2555C76.2107 84.314 76.1989 84.3768 76.2 84.44V85.48C76.2 87.027 76.58 88.393 77.34 89.58C78.1 90.767 79.173 91.687 80.56 92.34C81.947 92.993 83.56 93.32 85.4 93.32V93.32ZM106.6 93.36C108.44 93.36 110.067 92.987 111.48 92.24C112.893 91.493 113.987 90.44 114.76 89.08C115.533 87.72 115.92 86.133 115.92 84.32V73.68C115.92 71.893 115.533 70.32 114.76 68.96C113.987 67.6 112.893 66.547 111.48 65.8C110.067 65.053 108.44 64.68 106.6 64.68C104.76 64.68 103.14 65.053 101.74 65.8C100.371 66.5165 99.2389 67.6141 98.48 68.96C97.707 70.32 97.32 71.893 97.32 73.68V84.32C97.32 86.133 97.707 87.72 98.48 89.08C99.2389 90.426 100.371 91.5235 101.74 92.24C103.14 92.987 104.76 93.36 106.6 93.36ZM106.6 88.52C105.507 88.52 104.627 88.153 103.96 87.42C103.293 86.687 102.96 85.733 102.96 84.56V73.52C102.96 72.32 103.293 71.353 103.96 70.62C104.627 69.887 105.507 69.52 106.6 69.52C107.72 69.52 108.613 69.887 109.28 70.62C109.947 71.353 110.28 72.32 110.28 73.52V84.56C110.28 85.733 109.947 86.687 109.28 87.42C108.613 88.153 107.72 88.52 106.6 88.52ZM124.84 93C124.903 93.0011 124.966 92.9893 125.025 92.9652C125.083 92.9411 125.136 92.9053 125.18 92.86C125.225 92.8159 125.261 92.763 125.285 92.7045C125.309 92.646 125.321 92.5832 125.32 92.52V81.6C125.32 81.467 125.387 81.4 125.52 81.4H128.04C128.12 81.4 128.187 81.453 128.24 81.56L132.28 92.6C132.36 92.867 132.547 93 132.84 93H137.72C138.013 93 138.16 92.88 138.16 92.64C138.162 92.5711 138.149 92.5027 138.12 92.44L133.56 80.96C133.507 80.827 133.547 80.733 133.68 80.68C135.04 80.067 136.093 79.133 136.84 77.88C137.587 76.627 137.96 75.147 137.96 73.44C137.96 71.787 137.627 70.32 136.96 69.04C136.323 67.7915 135.336 66.7559 134.12 66.06C132.893 65.353 131.493 65 129.92 65H120.16C120.097 64.9989 120.034 65.0107 119.976 65.0348C119.917 65.0589 119.864 65.0947 119.82 65.14C119.775 65.1841 119.739 65.237 119.715 65.2955C119.691 65.354 119.679 65.4168 119.68 65.48V92.52C119.68 92.653 119.727 92.767 119.82 92.86C119.913 92.953 120.027 93 120.16 93H124.84V93ZM129 77.08H125.52C125.387 77.08 125.32 77.013 125.32 76.88V70.04C125.32 69.907 125.387 69.84 125.52 69.84H129C129.987 69.84 130.787 70.167 131.4 70.82C132.013 71.473 132.32 72.36 132.32 73.48C132.32 74.573 132.013 75.447 131.4 76.1C130.787 76.753 129.987 77.08 129 77.08ZM149.8 93.32C152.52 93.32 154.7 92.607 156.34 91.18C157.98 89.753 158.8 87.827 158.8 85.4C158.8 84.04 158.507 82.88 157.92 81.92C157.36 80.9889 156.619 80.1796 155.74 79.54C154.873 78.913 153.667 78.173 152.12 77.32L151.28 76.84C149.92 76.173 148.907 75.633 148.24 75.22C147.573 74.807 147.08 74.373 146.76 73.92C146.44 73.467 146.28 72.933 146.28 72.32C146.28 71.44 146.553 70.753 147.1 70.26C147.647 69.767 148.4 69.52 149.36 69.52C150.507 69.52 151.413 69.84 152.08 70.48C152.747 71.12 153.08 71.92 153.08 72.88V73.6C153.08 73.733 153.127 73.847 153.22 73.94C153.313 74.033 153.427 74.08 153.56 74.08H158.16C158.223 74.0811 158.286 74.0693 158.345 74.0452C158.403 74.0211 158.456 73.9853 158.5 73.94C158.545 73.8959 158.581 73.843 158.605 73.7845C158.629 73.726 158.641 73.6632 158.64 73.6V72.8C158.64 71.2 158.253 69.787 157.48 68.56C156.707 67.333 155.627 66.38 154.24 65.7C152.853 65.02 151.267 64.68 149.48 64.68C147.773 64.68 146.253 64.993 144.92 65.62C143.587 66.247 142.553 67.14 141.82 68.3C141.087 69.46 140.72 70.813 140.72 72.36C140.72 73.907 141.08 75.227 141.8 76.32C142.52 77.413 143.387 78.307 144.4 79C145.413 79.693 146.72 80.44 148.32 81.24C149.627 81.907 150.593 82.433 151.22 82.82C151.847 83.207 152.333 83.62 152.68 84.06C153.027 84.5 153.2 85.027 153.2 85.64C153.2 86.467 152.927 87.147 152.38 87.68C151.833 88.213 151.04 88.48 150 88.48C148.827 88.48 147.893 88.167 147.2 87.54C146.507 86.913 146.16 86.133 146.16 85.2V84.44C146.161 84.3768 146.149 84.314 146.125 84.2555C146.101 84.197 146.065 84.1441 146.02 84.1C145.976 84.0547 145.923 84.0189 145.865 83.9948C145.806 83.9707 145.743 83.9589 145.68 83.96H141.08C141.017 83.9589 140.954 83.9707 140.896 83.9948C140.837 84.0189 140.784 84.0547 140.74 84.1C140.695 84.1441 140.659 84.197 140.635 84.2555C140.611 84.314 140.599 84.3768 140.6 84.44V85.48C140.6 87.027 140.98 88.393 141.74 89.58C142.5 90.767 143.573 91.687 144.96 92.34C146.347 92.993 147.96 93.32 149.8 93.32V93.32Z" fill="white"/>
<defs>
<filter id="filter0_d" x="0.319946" y="0.68" width="161.48" height="98.68" filterUnits="userSpaceOnUse" color-interpolation-filters="sRGB">
<feFlood flood-opacity="0" result="BackgroundImageFix"/>
<feColorMatrix in="SourceAlpha" type="matrix" values="0 0 0 0 0 0 0 0 0 0 0 0 0 0 0 0 0 0 127 0" result="hardAlpha"/>
<feOffset dy="3"/>
<feGaussianBlur stdDeviation="1.5"/>
<feColorMatrix type="matrix" values="0 0 0 0 0 0 0 0 0 0 0 0 0 0 0 0 0 0 0.196706 0"/>
<feBlend mode="normal" in2="BackgroundImageFix" result="effect1_dropShadow"/>
<feBlend mode="normal" in="SourceGraphic" in2="effect1_dropShadow" result="shape"/>
</filter>
</defs>
</svg>
