<svg width="108" height="110" viewBox="0 0 108 110" fill="none" xmlns="http://www.w3.org/2000/svg">
<path d="M53.686 109.63C83.336 109.63 107.372 85.0885 107.372 54.815C107.372 24.5415 83.336 0 53.686 0C24.036 0 0 24.5415 0 54.815C0 85.0885 24.036 109.63 53.686 109.63Z" fill="#9B1734"/>
<path d="M53.686 104.77C83.336 104.77 107.372 81.3164 107.372 52.385C107.372 23.4536 83.336 0 53.686 0C24.036 0 0 23.4536 0 52.385C0 81.3164 24.036 104.77 53.686 104.77Z" fill="url(#paint0_linear)"/>
<path d="M53.687 94.509C76.4489 94.509 94.901 76.133 94.901 53.465C94.901 30.797 76.4489 12.421 53.687 12.421C30.9252 12.421 12.473 30.797 12.473 53.465C12.473 76.133 30.9252 94.509 53.687 94.509Z" fill="#C1C1D2"/>
<path d="M69.652 47.571C69.177 41.574 62.444 42.186 62.444 42.186C59.602 37.176 55.163 40.805 55.163 40.805C51.753 35.894 47.476 40.445 47.476 40.445C40.103 39.649 40.389 45.679 40.389 45.679C40.216 47.596 41.429 53.526 41.429 53.526C40.335 50.108 37.962 52.945 37.962 52.945C35.045 57.447 37.241 59.912 37.241 59.912C41.188 64.538 49.598 70.092 49.598 70.092C52.644 71.837 51.355 73.392 51.355 73.392L69.775 70.348L70.199 66.854C72.999 58.382 69.652 47.57 69.652 47.57V47.571Z" fill="#8A90AC"/>
<path d="M53.687 95.509C75.1792 95.509 92.602 78.158 92.602 56.7545C92.602 35.351 75.1792 18 53.687 18C32.1948 18 14.772 35.351 14.772 56.7545C14.772 78.158 32.1948 95.509 53.687 95.509Z" fill="white"/>
<path d="M67.3518 47.5415C66.9033 41.879 60.5459 42.4569 60.5459 42.4569C57.8624 37.7263 53.671 41.1529 53.671 41.1529C50.4512 36.5158 46.4128 40.813 46.4128 40.813C39.4511 40.0614 39.7211 45.755 39.7211 45.755C39.5578 47.5651 40.7031 53.1643 40.7031 53.1643C39.6701 49.937 37.4295 52.6157 37.4295 52.6157C34.6752 56.8666 36.7487 59.1941 36.7487 59.1941C40.4755 63.562 48.4164 68.8062 48.4164 68.8062C51.2925 70.4539 50.0754 71.9221 50.0754 71.9221L67.4679 69.0479L67.8683 65.7488C70.5121 57.7494 67.3518 47.5405 67.3518 47.5405V47.5415Z" fill="#3C4262"/>
<defs>
<linearGradient id="paint0_linear" x1="53.686" y1="0" x2="53.686" y2="104.77" gradientUnits="userSpaceOnUse">
<stop stop-color="#DE4060"/>
<stop offset="1" stop-color="#DE2D4C"/>
</linearGradient>
</defs>
</svg>
