<svg width="108" height="110" viewBox="0 0 108 110" fill="none" xmlns="http://www.w3.org/2000/svg">
<path d="M53.686 109.63C83.336 109.63 107.372 85.0885 107.372 54.815C107.372 24.5415 83.336 0 53.686 0C24.036 0 0 24.5415 0 54.815C0 85.0885 24.036 109.63 53.686 109.63Z" fill="#C56C19"/>
<path d="M53.686 104.77C83.336 104.77 107.372 81.3164 107.372 52.385C107.372 23.4536 83.336 0 53.686 0C24.036 0 0 23.4536 0 52.385C0 81.3164 24.036 104.77 53.686 104.77Z" fill="url(#paint0_linear)"/>
<path d="M53.687 94.509C76.4489 94.509 94.901 76.133 94.901 53.465C94.901 30.797 76.4489 12.421 53.687 12.421C30.9252 12.421 12.473 30.797 12.473 53.465C12.473 76.133 30.9252 94.509 53.687 94.509Z" fill="#DBDBDC"/>
<path d="M54 95C74.9868 95 92 77.9868 92 57C92 36.0132 74.9868 19 54 19C33.0132 19 16 36.0132 16 57C16 77.9868 33.0132 95 54 95Z" fill="white"/>
<path d="M42.928 53.113L47.379 46.879C45.529 46.572 42.131 46.504 39.348 49.276C34.96 53.646 33.183 63.085 32.813 65.369L43.963 76.474C45.971 76.304 54.859 75.121 63.423 66.593C63.513 66.409 65.6001 64.873 63.8941 63.175C63.0801 62.365 61.7321 62.379 60.9011 63.208C60.8043 63.3082 60.6885 63.3881 60.5606 63.4432C60.4326 63.4982 60.295 63.5273 60.1557 63.5287C60.0164 63.5301 59.8782 63.5038 59.7492 63.4513C59.6201 63.3988 59.5028 63.3212 59.404 63.223C59.3055 63.1251 59.2276 63.0084 59.1749 62.8799C59.1222 62.7514 59.0958 62.6137 59.0972 62.4748C59.0986 62.3359 59.1278 62.1987 59.1831 62.0713C59.2383 61.9439 59.3186 61.8289 59.419 61.733L62.445 58.719C63.983 57.187 62.5341 54.603 60.3871 55.224L57.91 57.336C57.6974 57.5198 57.4208 57.6122 57.1403 57.5929C56.8599 57.5736 56.5985 57.4442 56.413 57.233C56.029 56.79 56.111 56.119 56.548 55.741C65.2021 48.179 63.9381 49.091 69.5061 43.893C71.5861 42.168 68.97 39.117 66.92 40.863L53.451 52.927C53.2581 53.0909 53.0124 53.1796 52.7592 53.1768C52.5061 53.1741 52.2624 53.08 52.073 52.912C51.628 52.529 51.618 51.978 51.909 51.542L61.3041 36.997C62.6771 35.145 59.974 33.087 58.528 34.955L44.6371 54.302C44.5577 54.4158 44.4566 54.5127 44.3396 54.5872C44.2225 54.6617 44.0919 54.7123 43.9552 54.736C43.8185 54.7597 43.6785 54.7561 43.5432 54.7253C43.4079 54.6946 43.2801 54.6374 43.167 54.557C43.0548 54.4793 42.9594 54.3798 42.8863 54.2645C42.8132 54.1492 42.7641 54.0204 42.7417 53.8857C42.7193 53.7511 42.7242 53.6133 42.756 53.4806C42.7879 53.3478 42.846 53.2228 42.927 53.113H42.928Z" fill="#3C4262"/>
<defs>
<linearGradient id="paint0_linear" x1="53.686" y1="0" x2="53.686" y2="104.77" gradientUnits="userSpaceOnUse">
<stop stop-color="#EDA725"/>
<stop offset="1" stop-color="#EB9E0E"/>
</linearGradient>
</defs>
</svg>
